<?xml version="1.0" encoding="UTF-8" standalone="no"?>
<svg
   xmlns:dc="http://purl.org/dc/elements/1.1/"
   xmlns:cc="http://creativecommons.org/ns#"
   xmlns:rdf="http://www.w3.org/1999/02/22-rdf-syntax-ns#"
   xmlns:svg="http://www.w3.org/2000/svg"
   xmlns="http://www.w3.org/2000/svg"
   xmlns:sodipodi="http://sodipodi.sourceforge.net/DTD/sodipodi-0.dtd"
   xmlns:inkscape="http://www.inkscape.org/namespaces/inkscape"
   width="24"
   height="24"
   viewBox="0 0 24 24"
   version="1.1"
   id="svg6"
   sodipodi:docname="ic_rotate.svg"
   inkscape:version="0.92.3 (2405546, 2018-03-11)">
  <metadata
     id="metadata12">
    <rdf:RDF>
      <cc:Work
         rdf:about="">
        <dc:format>image/svg+xml</dc:format>
        <dc:type
           rdf:resource="http://purl.org/dc/dcmitype/StillImage" />
      </cc:Work>
    </rdf:RDF>
  </metadata>
  <defs
     id="defs10" />
  <sodipodi:namedview
     pagecolor="#ffffff"
     bordercolor="#666666"
     borderopacity="1"
     objecttolerance="10"
     gridtolerance="10"
     guidetolerance="10"
     inkscape:pageopacity="0"
     inkscape:pageshadow="2"
     inkscape:window-width="1920"
     inkscape:window-height="1027"
     id="namedview8"
     showgrid="false"
     inkscape:zoom="9.8333333"
     inkscape:cx="-5.8134093"
     inkscape:cy="2.5267772"
     inkscape:window-x="-8"
     inkscape:window-y="-8"
     inkscape:window-maximized="1"
     inkscape:current-layer="svg6" />
  <path
     d="M 7.34,6.41 0.86,12.9 7.35,19.38 13.84,12.9 Z M 3.69,12.9 7.35,9.24 11,12.9 7.34,16.56 Z M 19.36,6.64 C 17.61,4.88 15.3,4 13,4 V 0.76 L 8.76,5 13,9.24 V 6 c 1.79,0 3.58,0.68 4.95,2.05 2.73,2.73 2.73,7.17 0,9.9 C 16.58,19.32 14.79,20 13,20 12.03,20 11.06,19.79 10.16,19.39 L 8.67,20.88 C 10.02,21.62 11.51,22 13,22 c 2.3,0 4.61,-0.88 6.36,-2.64 3.52,-3.51 3.52,-9.21 0,-12.72 z"
     id="path2"
     inkscape:connector-curvature="0"
     transform="matrix(-1,0,0,1,24,0)"
     style="fill:#ffffff" />
  <path
     d="M 0,0 H 24 V 24 H 0 Z"
     id="path4"
     inkscape:connector-curvature="0"
     transform="matrix(-1,0,0,1,24,0)"
     style="fill:none" />
</svg>
